<svg width="24" height="24" viewBox="0 0 24 24" fill="none" xmlns="http://www.w3.org/2000/svg">
<path d="M24.0002 12.2667C24.0002 11.28 23.9185 10.56 23.7417 9.81335H12.2451V14.2666H18.9934C18.8574 15.3733 18.1227 17.04 16.49 18.1599L16.4671 18.309L20.1021 21.0687L20.3539 21.0934C22.6668 19 24.0002 15.92 24.0002 12.2667Z" fill="#4285F4"/>
<path d="M12.2454 23.9999C15.5515 23.9999 18.327 22.9332 20.3543 21.0933L16.4903 18.1599C15.4563 18.8666 14.0685 19.3599 12.2454 19.3599C9.00737 19.3599 6.25909 17.2666 5.2794 14.3733L5.13581 14.3852L1.35607 17.2519L1.30664 17.3866C3.32022 21.3065 7.45628 23.9999 12.2454 23.9999Z" fill="#34A853"/>
<path d="M5.27885 14.3734C5.02036 13.6267 4.87075 12.8266 4.87075 12C4.87075 11.1733 5.02036 10.3733 5.26525 9.62667L5.25841 9.46766L1.43131 6.55493L1.30609 6.6133C0.476195 8.23999 0 10.0667 0 12C0 13.9333 0.476195 15.76 1.30609 17.3866L5.27885 14.3734Z" fill="#FBBC05"/>
<path d="M12.2454 4.63997C14.5447 4.63997 16.0957 5.6133 16.9801 6.42669L20.4359 3.12C18.3135 1.18667 15.5515 0 12.2454 0C7.45628 0 3.32022 2.69331 1.30664 6.61328L5.2658 9.62666C6.25909 6.73333 9.00737 4.63997 12.2454 4.63997Z" fill="#EB4335"/>
</svg>
